<svg width="1618" height="174" viewBox="0 0 1618 174" fill="none" xmlns="http://www.w3.org/2000/svg">
<path d="M12.5 80.5C55 41.8333 208.491 -44.6648 390 80.5C615.5 236 630 164 768.5 80.5C907 -3.00001 978.853 -42.3073 1171 80.5C1401 227.5 1506.5 133.5 1585 80.5" stroke="#DDE0EB" stroke-width="3" stroke-dasharray="5 5"/>
<circle cx="10" cy="84" r="10" fill="#DDE0EB"/>
<g clip-path="url(#clip0_402_5919)">
<path opacity="0.96" fill-rule="evenodd" clip-rule="evenodd" d="M1615.98 47.9531C1616.33 47.9531 1616.67 47.9531 1617.02 47.9531C1617.42 48.1719 1617.73 48.4844 1617.95 48.8906C1617.95 49.2344 1617.95 49.5781 1617.95 49.9219C1611.84 65.0963 1605.73 80.2837 1599.62 95.4844C1599.44 95.6766 1599.24 95.8328 1599.02 95.9531C1598.67 95.9531 1598.33 95.9531 1597.98 95.9531C1597.71 95.8238 1597.48 95.6363 1597.28 95.3906C1594.35 89.4334 1591.44 83.4646 1588.56 77.4844C1582.56 74.5208 1576.54 71.5676 1570.52 68.625C1570.27 68.4249 1570.08 68.1906 1569.95 67.9219C1569.95 67.5781 1569.95 67.2344 1569.95 66.8906C1570.16 66.4493 1570.5 66.1525 1570.98 66C1586 60.0094 1601 53.9938 1615.98 47.9531ZM1610.27 53.4844C1603.3 60.5137 1596.3 67.5137 1589.27 74.4844C1584.53 72.162 1579.78 69.8651 1575.02 67.5938C1586.75 62.845 1598.5 58.1419 1610.27 53.4844ZM1612.42 55.6406C1607.76 67.4102 1603.06 79.1602 1598.31 90.8906C1596.04 86.1292 1593.74 81.3792 1591.42 76.6406C1598.39 69.6074 1605.39 62.6074 1612.42 55.6406Z" fill="#DDE0EB"/>
</g>
<defs>
<clipPath id="clip0_402_5919">
<rect width="48" height="48" fill="white" transform="translate(1570 48)"/>
</clipPath>
</defs>
</svg>
